<svg width="1314" height="323" viewBox="0 0 1314 323" fill="none" xmlns="http://www.w3.org/2000/svg">
<path d="M220.92 18.86V67.45H140.94V319H80.74V67.45H0.760001V18.86H220.92ZM325.044 117.76C332.784 105.147 342.817 95.2567 355.144 88.09C367.757 80.9233 382.09 77.34 398.144 77.34V140.55H382.234C363.314 140.55 348.981 144.993 339.234 153.88C329.774 162.767 325.044 178.247 325.044 200.32V319H264.844V80.78H325.044V117.76ZM423.211 199.03C423.211 174.95 427.941 153.593 437.401 134.96C447.148 116.327 460.191 101.993 476.531 91.96C493.158 81.9267 511.648 76.91 532.001 76.91C549.775 76.91 565.255 80.4933 578.441 87.66C591.915 94.8267 602.665 103.857 610.691 114.75V80.78H671.321V319H610.691V284.17C602.951 295.35 592.201 304.667 578.441 312.12C564.968 319.287 549.345 322.87 531.571 322.87C511.505 322.87 493.158 317.71 476.531 307.39C460.191 297.07 447.148 282.593 437.401 263.96C427.941 245.04 423.211 223.397 423.211 199.03ZM610.691 199.89C610.691 185.27 607.825 172.8 602.091 162.48C596.358 151.873 588.618 143.847 578.871 138.4C569.125 132.667 558.661 129.8 547.481 129.8C536.301 129.8 525.981 132.523 516.521 137.97C507.061 143.417 499.321 151.443 493.301 162.05C487.568 172.37 484.701 184.697 484.701 199.03C484.701 213.363 487.568 225.977 493.301 236.87C499.321 247.477 507.061 255.647 516.521 261.38C526.268 267.113 536.588 269.98 547.481 269.98C558.661 269.98 569.125 267.257 578.871 261.81C588.618 256.077 596.358 248.05 602.091 237.73C607.825 227.123 610.691 214.51 610.691 199.89ZM829.447 263.53L889.647 80.78H953.717L865.567 319H792.467L704.747 80.78H769.247L829.447 263.53ZM1208.98 194.73C1208.98 203.33 1208.41 211.07 1207.26 217.95H1033.11C1034.54 235.15 1040.56 248.623 1051.17 258.37C1061.78 268.117 1074.82 272.99 1090.3 272.99C1112.66 272.99 1128.57 263.387 1138.03 244.18H1202.96C1196.08 267.113 1182.89 286.033 1163.4 300.94C1143.91 315.56 1119.97 322.87 1091.59 322.87C1068.66 322.87 1048.02 317.853 1029.67 307.82C1011.61 297.5 997.419 283.023 987.099 264.39C977.066 245.757 972.049 224.257 972.049 199.89C972.049 175.237 977.066 153.593 987.099 134.96C997.133 116.327 1011.18 101.993 1029.24 91.96C1047.3 81.9267 1068.08 76.91 1091.59 76.91C1114.24 76.91 1134.45 81.7833 1152.22 91.53C1170.28 101.277 1184.18 115.18 1193.93 133.24C1203.96 151.013 1208.98 171.51 1208.98 194.73ZM1146.63 177.53C1146.34 162.05 1140.75 149.723 1129.86 140.55C1118.97 131.09 1105.64 126.36 1089.87 126.36C1074.96 126.36 1062.35 130.947 1052.03 140.12C1042 149.007 1035.83 161.477 1033.54 177.53H1146.63ZM1313.12 0.799996V319H1252.92V0.799996H1313.12Z" fill="#F4F6FA" fill-opacity="0.8"/>
</svg>
